<svg width="77" height="100" viewBox="0 0 77 100" fill="none" xmlns="http://www.w3.org/2000/svg">
<path d="M68.1081 45.8296L68.0253 45.9266L68.1076 46.0239L76.4236 55.8536L76.4258 55.8561C76.6938 56.1592 76.7691 56.6088 76.671 57.0392C76.5729 57.4695 76.3081 57.85 75.9368 58.0197L75.9358 58.0201L67.6199 61.8901L67.5331 61.9304V62.0261V79.9827C67.5331 80.539 67.1866 81.0284 66.6998 81.2381L66.6979 81.239L38.9832 93.6207C38.9823 93.621 38.9814 93.6214 38.9805 93.6217C38.6328 93.7607 38.2133 93.7607 37.8656 93.6216C37.8648 93.6213 37.8639 93.621 37.8631 93.6206L10.1483 81.239L10.1465 81.2382C9.65967 81.0284 9.31314 80.539 9.31314 79.9827V62.0261V61.9304L9.22643 61.8901L0.910428 58.0201L0.909476 58.0197C0.54121 57.8514 0.294292 57.474 0.204768 57.0421C0.115372 56.6108 0.1899 56.1568 0.424651 55.8513L8.81521 46.0244L8.89838 45.927L8.81521 45.8296L0.427139 36.0056C0.187564 35.6576 0.116326 35.2008 0.204638 34.7835C0.293387 34.3643 0.538583 34.0038 0.909476 33.8343L18.2218 25.9728C18.1761 26.4153 18.1761 26.8195 18.1761 27.2695V27.2737C18.1761 27.8555 18.3069 28.4376 18.5113 28.9031L3.94169 35.5739L3.76076 35.6567L3.89022 35.8079L11.0512 44.167L11.1242 44.2521L11.2265 44.2063L23.1957 38.842C23.6789 39.5953 24.4545 40.2677 25.4609 40.4246C25.6537 40.4633 25.8653 40.502 26.0752 40.5403L26.0762 40.5405C26.1244 40.5493 26.1726 40.5581 26.2205 40.5669L14.4921 45.79L14.1847 45.9269L14.492 46.064L38.439 56.7451L38.5003 56.7724L38.5616 56.745L62.3546 46.0639L62.6606 45.9264L62.3541 45.79L51.1768 40.8132C51.9218 40.4359 52.6101 39.9515 53.288 39.4746L53.2935 39.4707L53.3042 39.4632L53.3135 39.4539C53.4235 39.3433 53.5339 39.2507 53.65 39.1535L53.6519 39.1518C53.7426 39.0758 53.8369 38.9969 53.932 38.9071L65.6973 44.1291L65.7994 44.1744L65.872 44.0896L73.033 35.7305L73.1625 35.5794L72.9816 35.4965L57.3846 28.3492C57.4911 27.8826 57.5976 27.401 57.7039 26.92L57.7041 26.9191C57.8059 26.4586 57.9076 25.9987 58.0092 25.5522L76.0135 33.8342L76.0138 33.8343C76.3851 34.004 76.6499 34.3845 76.748 34.8148C76.8461 35.2452 76.7708 35.6948 76.5028 35.9979L76.5011 35.9999L68.1081 45.8296ZM3.89022 56.1235L3.76127 56.2741L3.94118 56.3573L28.0422 67.5028L28.1414 67.5487L28.2154 67.4683L35.9924 59.0318L36.1338 58.8784L35.9434 58.7932L11.2264 47.7251L11.1241 47.6793L11.0512 47.7644L3.89022 56.1235ZM36.899 90.1042L37.1101 90.1984V89.9672V62.2583V61.8757L36.8501 62.1564L29.5351 70.0511L29.535 70.051L29.531 70.0557C29.111 70.5482 28.492 70.6826 27.9415 70.406L27.9415 70.4059L27.9366 70.4036L12.3826 63.2829L12.1701 63.1857V63.4193V78.9766V79.0739L12.259 79.1135L36.899 90.1042ZM64.7412 79.1135L64.8301 79.0739V78.9766V63.4193V63.1857L64.6177 63.2829L49.0685 70.4014C48.5103 70.6097 47.8829 70.4694 47.4633 70.049L40.1502 62.1564L39.8901 61.8757V62.2583V89.9672V90.1984L40.1012 90.1042L64.7412 79.1135ZM48.7078 67.3909L48.7819 67.4713L48.8811 67.4254L72.9821 56.2799L73.162 56.1967L73.033 56.0462L65.872 47.687L65.7991 47.6019L65.6968 47.6477L40.9798 58.7158L40.7895 58.801L40.9308 58.9544L48.7078 67.3909Z" fill="#E63756" stroke="white" stroke-width="0.3"/>
<path d="M42.658 25.774C45.507 23.4521 45.969 19.2725 43.736 16.4087C41.426 13.5449 37.268 13.0031 34.419 15.3251C31.57 17.6471 31.108 21.8267 33.341 24.6904C33.649 25.0774 34.034 25.4644 34.419 25.774C32.032 27.2446 30.569 29.7988 30.569 32.5852V36.61C30.569 37.3839 31.185 37.9257 31.878 37.9257H45.199C45.969 37.9257 46.508 37.3065 46.508 36.61V32.5852C46.431 29.7988 44.968 27.1672 42.658 25.774ZM34.496 20.5109C34.496 18.2663 36.267 16.4861 38.5 16.4861C40.733 16.4861 42.504 18.2663 42.504 20.5109C42.504 22.7555 40.733 24.5356 38.5 24.5356C36.267 24.5356 34.496 22.7555 34.496 20.5109ZM43.813 35.2168H33.187V32.5078C33.187 29.5666 35.574 27.1672 38.5 27.1672C41.426 27.1672 43.813 29.5666 43.813 32.5078V35.2168Z" fill="#E63756"/>
<path d="M38.5001 45.8978C49.5111 45.8978 58.4431 36.9195 58.4431 25.8514C58.4431 14.7833 49.5111 5.80493 38.5001 5.80493C27.4891 5.80493 18.5571 14.7833 18.5571 25.8514C18.5571 36.9195 27.4891 45.8978 38.5001 45.8978Z" stroke="#E63756" stroke-width="4" stroke-miterlimit="10"/>
<path d="M38.5001 48.2972C50.8201 48.2972 60.8301 38.2352 60.8301 25.8513C60.8301 13.4674 50.8201 3.40552 38.5001 3.40552C26.18 3.40552 16.17 13.4674 16.17 25.8513C16.17 38.2352 26.18 48.2972 38.5001 48.2972Z" stroke="white" stroke-width="3" stroke-miterlimit="10"/>
<path d="M13.475 74.3809C13.09 75.1549 13.475 76.0837 14.245 76.4707L33.495 84.7524C34.265 85.1394 35.189 84.7524 35.574 83.9784C35.959 83.2044 35.574 82.2757 34.804 81.8887L15.554 73.6069C14.707 73.2973 13.86 73.6069 13.475 74.3809Z" fill="#E63756"/>
<path d="M25.795 72.0587L15.631 67.7243C14.861 67.3373 13.937 67.6469 13.552 68.4209C13.167 69.1949 13.475 70.1237 14.245 70.5107L24.409 74.8451C25.179 75.2321 26.103 74.9225 26.488 74.1485C26.796 73.3745 26.488 72.4457 25.795 72.0587Z" fill="#E63756"/>
</svg>
