<svg width="100" height="100" viewBox="0 0 100 100" fill="none" xmlns="http://www.w3.org/2000/svg">
<path d="M81.3029 80.5791L75.1509 71.7733V55.6092H72.7383V70.9289H11.8216V24.3668H48.3716V21.9542H10.6153C9.89152 21.9542 9.40901 22.4367 9.40901 23.1605V71.7733L3.25702 80.5791C2.41263 81.906 2.292 83.7154 3.01576 85.1629C3.73953 86.6104 5.18705 87.5755 6.87584 87.5755H77.5634C79.2522 87.5755 80.6997 86.7311 81.5441 85.1629C82.3885 83.7154 82.2679 81.906 81.3029 80.5791ZM11.2184 73.4621H73.3415L78.0459 80.2172H6.51395L11.2184 73.4621ZM79.4934 84.1979C79.1316 84.9217 78.4078 85.2835 77.684 85.2835H6.87584C6.03145 85.2835 5.42831 84.9217 5.06643 84.1979C4.82517 83.7154 4.70455 83.1123 4.9458 82.6297H79.7347C79.8553 83.1123 79.7347 83.7154 79.4934 84.1979Z" fill="#E63756"/>
<path d="M68.0338 55.6093V66.4657H16.2847V28.83H48.3716V26.4175H15.0785C14.3547 26.4175 13.8722 26.9 13.8722 27.6238V67.672C13.8722 68.3958 14.3547 68.8783 15.0785 68.8783H69.3607C69.9639 68.8783 70.567 68.2751 70.4464 67.5514V55.6093H68.0338Z" fill="#E63756"/>
<path d="M74.1332 33.8402C77.0665 31.5686 77.4665 27.2925 75.1999 24.4863C72.9332 21.6801 68.6665 21.1456 65.8665 23.4173C62.9332 25.6889 62.5332 29.965 64.7999 32.7712C65.0665 33.1721 65.4665 33.573 65.8665 33.8402C63.4665 35.3101 61.9999 37.8491 61.9999 40.6553V44.6641C61.9999 45.4659 62.5332 46.0004 63.3332 46.0004H76.6665C77.4665 46.0004 77.9999 45.4659 77.9999 44.6641V40.6553C77.9999 37.9827 76.5332 35.3101 74.1332 33.8402ZM65.9999 28.7624C65.9999 26.4907 67.7332 24.7535 69.9999 24.7535C72.2665 24.7535 73.9999 26.4907 73.9999 28.7624C73.9999 31.0341 72.2665 32.7712 69.9999 32.7712C67.7332 32.7712 65.9999 30.9004 65.9999 28.7624ZM75.3332 43.4614H64.6665V40.7889C64.6665 37.8491 67.0665 35.4438 69.9999 35.4438C72.9332 35.4438 75.3332 37.8491 75.3332 40.7889V43.4614Z" fill="#E63756"/>
<path d="M85.7658 15.3197H54.4028C52.3521 15.3197 50.7839 16.8879 50.7839 18.9385V50.3016C50.7839 52.3523 52.3521 53.9204 54.4028 53.9204H56.8153V59.9518C56.8153 60.4343 57.0566 60.9168 57.5391 61.0374C57.6597 61.1581 57.9009 61.1581 58.0216 61.1581C58.3835 61.1581 58.6247 61.0374 58.866 60.7962L65.7417 53.9204H85.7658C87.8165 53.9204 89.3847 52.3523 89.3847 50.3016V18.9385C89.3847 16.8879 87.6959 15.3197 85.7658 15.3197ZM86.9721 50.3016C86.9721 51.0254 86.4896 51.5079 85.7658 51.5079H65.2592C64.8973 51.5079 64.6561 51.6285 64.4148 51.8698L59.2278 57.0567V52.7142C59.2278 51.9904 58.7453 51.5079 58.0216 51.5079H54.4028C53.679 51.5079 53.1965 51.0254 53.1965 50.3016V18.9385C53.1965 18.2148 53.679 17.7322 54.4028 17.7322H85.7658C86.4896 17.7322 86.9721 18.2148 86.9721 18.9385V50.3016Z" fill="#E63756"/>
<path d="M27.8648 61.1581H54.4028V58.7456H27.8648C27.141 58.7456 26.6585 58.2631 26.6585 57.5393V38.2389C26.6585 37.5152 27.141 37.0327 27.8648 37.0327H48.3714V34.6201H27.8648C25.8141 34.6201 24.246 36.1883 24.246 38.2389V57.5393C24.246 59.4693 25.8141 61.1581 27.8648 61.1581Z" fill="#E63756"/>
<path d="M48.3714 39.4452H32.6899C31.9661 39.4452 31.4836 39.9277 31.4836 40.6515C31.4836 41.3752 31.0011 41.8577 30.2773 41.8577C29.5536 41.8577 29.071 42.3402 29.071 43.064V52.7142C29.071 53.438 29.5536 53.9205 30.2773 53.9205C31.0011 53.9205 31.4836 54.403 31.4836 55.1267C31.4836 55.8505 31.9661 56.333 32.6899 56.333H48.3714V53.9205H33.6549C33.293 52.8348 32.4486 52.1111 31.4836 51.7492V44.1497C32.5692 43.7878 33.293 42.9434 33.6549 41.9784H48.3714V39.4452Z" fill="#E63756"/>
<path d="M48.3715 45.4765V43.064C45.7177 43.064 43.5464 45.2353 43.5464 47.8891C43.5464 50.5429 45.7177 52.7141 48.3715 52.7141V50.3016C47.0446 50.3016 45.9589 49.216 45.9589 47.8891C45.9589 46.4415 47.0446 45.4765 48.3715 45.4765Z" fill="#E63756"/>
</svg>
