<svg width="20" height="20" viewBox="0 0 20 20" fill="none" xmlns="http://www.w3.org/2000/svg">
<path d="M16.1539 0H3.84615C1.70938 0 0 1.70938 0 3.84618V16.1539C0 18.2906 1.70938 20 3.84615 20H16.1539C18.2906 20 20 18.2906 20 16.1539V3.84615C20 1.70938 18.2906 0 16.1539 0ZM17.2649 2.30771H17.6923V5.72647H14.2735V2.30771H17.2649ZM7.17949 7.94873C7.77778 7.09404 8.88891 6.49571 10 6.49571C11.1111 6.49571 12.2222 7.09404 12.8205 7.94873C13.2479 8.54702 13.5043 9.23076 13.5043 10C13.5043 11.9658 11.8803 13.5043 10 13.5043C8.11967 13.5043 6.49575 11.9658 6.49575 10C6.49575 9.23076 6.75215 8.54702 7.17949 7.94873ZM18.0342 16.1539C18.0342 17.1795 17.1795 18.0342 16.1539 18.0342H3.84615C2.82051 18.0342 1.96582 17.1795 1.96582 16.1539V7.94873H4.95727C4.70084 8.54702 4.52993 9.31625 4.52993 10C4.52993 12.9915 7.00855 15.4701 10 15.4701C12.9915 15.4701 15.4701 12.9915 15.4701 10C15.4701 9.31625 15.2991 8.54698 15.0427 7.94873H18.0341L18.0342 16.1539Z" fill="#041A35"/>
</svg>
