<svg width="27" height="16" viewBox="0 0 27 16" fill="none" xmlns="http://www.w3.org/2000/svg">
<path fill-rule="evenodd" clip-rule="evenodd" d="M26.3784 1.07371C26.5683 0.442104 26.3784 0 25.492 0H22.5377C21.778 0 21.4403 0.400002 21.2504 0.842107C21.2504 0.842107 19.7521 4.50529 17.6207 6.86316C16.9244 7.55792 16.6289 7.76842 16.2491 7.76842C16.0592 7.76842 15.7848 7.55792 15.7848 6.92631V1.07371C15.7848 0.315801 15.5738 0 14.9407 0H10.2981C9.83385 0 9.53844 0.357901 9.53844 0.673702C9.53844 1.38951 10.5935 1.55791 10.7202 3.53688V7.87372C10.7202 8.82108 10.5513 8.98948 10.1715 8.98948C9.17968 8.98948 6.73176 5.32634 5.2968 1.11581C5.00135 0.336851 4.727 0 3.96729 0H1.01295C0.168847 0 0 0.400002 0 0.842107C0 1.62106 0.991812 5.49475 4.66369 10.6105C7.11162 14.1053 10.5513 16 13.6745 16C15.5527 16 15.7848 15.579 15.7848 14.8632V12.2106C15.7848 11.3685 15.9536 11.2 16.5656 11.2C17.0088 11.2 17.7474 11.4106 19.4989 13.0948C21.5037 15.0947 21.8413 16 22.9597 16H25.9141C26.7582 16 27.1803 15.579 26.927 14.7579C26.6527 13.9369 25.703 12.7369 24.4369 11.3053C23.7405 10.4842 22.7065 9.62109 22.4111 9.17898C21.9679 8.61053 22.0945 8.35792 22.4111 7.87372C22.4111 7.85267 26.0196 2.80002 26.3784 1.07371Z" fill="#041A35"/>
</svg>
