<svg width="28" height="20" viewBox="0 0 28 20" fill="none" xmlns="http://www.w3.org/2000/svg">
<path d="M25.9851 3.81647C25.6968 2.71529 24.8525 1.84706 23.7816 1.55059C21.8253 1 13.9999 1 13.9999 1C13.9999 1 6.17461 1 4.21828 1.52941C3.16803 1.82588 2.30313 2.71529 2.01482 3.81647C1.5 5.82824 1.5 10 1.5 10C1.5 10 1.5 14.1929 2.01482 16.1835C2.30313 17.2847 3.14744 18.1529 4.21828 18.4494C6.1952 19 13.9999 19 13.9999 19C13.9999 19 21.8253 19 23.7816 18.4706C24.8525 18.1741 25.6968 17.3059 25.9851 16.2047C26.4999 14.1929 26.4999 10.0212 26.4999 10.0212C26.4999 10.0212 26.5205 5.82824 25.9851 3.81647Z" fill="#041A35"/>
<path d="M18.0158 9.99963L11.5084 6.14551V13.8537L18.0158 9.99963Z" fill="white"/>
</svg>
